{"accessors" : [{"bufferView" : 0, "byteOffset" : 0, "componentType" : 5123, "count" : 44568, "type" : "SCALAR", "max" : [4730], "min" : [0]}, {"bufferView" : 1, "byteOffset" : 0, "componentType" : 5126, "count" : 4731, "type" : "VEC3", "max" : [6.352907657623291, 5.8233642578125, 1.2772984504699707], "min" : [-4.57357931137085, -5.8233642578125, 0.4932588040828705], "name" : "POSITION"}, {"bufferView" : 1, "byteOffset" : 12, "componentType" : 5126, "count" : 4731, "type" : "VEC3", "max" : [1.0000044107437134, 1.0000003576278687, 1.0000044107437134], "min" : [-1.0000044107437134, -1.0000003576278687, -1.0000044107437134], "name" : "NORMAL"}, {"bufferView" : 1, "byteOffset" : 24, "componentType" : 5126, "count" : 4731, "type" : "VEC2", "max" : [1, 2], "min" : [0, 1], "name" : "TEXCOORD_0"}, {"bufferView" : 0, "byteOffset" : 89136, "componentType" : 5123, "count" : 9144, "type" : "SCALAR", "max" : [647], "min" : [0]}, {"bufferView" : 2, "byteOffset" : 0, "componentType" : 5126, "count" : 648, "type" : "VEC3", "max" : [4.089911460876465, 3.5705270767211914, 1.2492482662200928], "min" : [3.4622554779052734, -3.5705270767211914, -0.10208725929260254], "name" : "POSITION"}, {"bufferView" : 2, "byteOffset" : 12, "componentType" : 5126, "count" : 648, "type" : "VEC3", "max" : [1.0000044107437134, 1.0000044107437134, 0.7315349578857422], "min" : [-1.0000044107437134, -1.0000044107437134, -0.7315122485160828], "name" : "NORMAL"}, {"bufferView" : 2, "byteOffset" : 24, "componentType" : 5126, "count" : 648, "type" : "VEC2", "max" : [1, 1.9900000095367432], "min" : [0, 1], "name" : "TEXCOORD_0"}, {"bufferView" : 0, "byteOffset" : 107424, "componentType" : 5123, "count" : 9144, "type" : "SCALAR", "max" : [647], "min" : [0]}, {"bufferView" : 3, "byteOffset" : 0, "componentType" : 5126, "count" : 648, "type" : "VEC3", "max" : [-1.6835836172103882, 3.5680532455444336, 1.2165995836257935], "min" : [-2.3112399578094482, -3.5680532455444336, -0.10339736938476562], "name" : "POSITION"}, {"bufferView" : 3, "byteOffset" : 12, "componentType" : 5126, "count" : 648, "type" : "VEC3", "max" : [1.0000044107437134, 1.0000042915344238, 0.7315344214439392], "min" : [-1.0000044107437134, -1.0000042915344238, -0.7315123677253723], "name" : "NORMAL"}, {"bufferView" : 3, "byteOffset" : 24, "componentType" : 5126, "count" : 648, "type" : "VEC2", "max" : [1, 1.9900000095367432], "min" : [0, 1], "name" : "TEXCOORD_0"}, {"bufferView" : 0, "byteOffset" : 125712, "componentType" : 5123, "count" : 468, "type" : "SCALAR", "max" : [55], "min" : [0]}, {"bufferView" : 4, "byteOffset" : 0, "componentType" : 5126, "count" : 56, "type" : "VEC3", "max" : [-2.064750909805298, 3.5624263286590576, 0.6418535709381104], "min" : [-2.3173539638519287, -3.5624263286590576, 0.5612355470657349], "name" : "POSITION"}, {"bufferView" : 4, "byteOffset" : 12, "componentType" : 5126, "count" : 56, "type" : "VEC3", "max" : [-0.27234527468681335, 0.9622041583061218, 0], "min" : [-1.0000044107437134, -0.9622041583061218, 0], "name" : "NORMAL"}, {"bufferView" : 4, "byteOffset" : 24, "componentType" : 5126, "count" : 56, "type" : "VEC2", "max" : [0.46875, 1.5], "min" : [0.0625, 1.4357784986495972], "name" : "TEXCOORD_0"}, {"bufferView" : 0, "byteOffset" : 126648, "componentType" : 5123, "count" : 108, "type" : "SCALAR", "max" : [15], "min" : [0]}, {"bufferView" : 5, "byteOffset" : 0, "componentType" : 5126, "count" : 16, "type" : "VEC3", "max" : [-1.8569979667663574, 0.8565781712532043, 0.9598303437232971], "min" : [-1.8981244564056396, -0.8565781712532043, 0.7778915762901306], "name" : "POSITION"}, {"bufferView" : 5, "byteOffset" : 12, "componentType" : 5126, "count" : 16, "type" : "VEC3", "max" : [-0.8908811807632446, 0.4531734883785248, 0.016429094597697258], "min" : [-0.9960689544677734, -0.4531734883785248, -0.07632523775100708], "name" : "NORMAL"}, {"bufferView" : 5, "byteOffset" : 24, "componentType" : 5126, "count" : 16, "type" : "VEC2", "max" : [0.5498199462890625, 1.9876660108566284], "min" : [0.46235182881355286, 1.9728947877883911], "name" : "TEXCOORD_0"}, {"bufferView" : 0, "byteOffset" : 126864, "componentType" : 5123, "count" : 72, "type" : "SCALAR", "max" : [11], "min" : [0]}, {"bufferView" : 6, "byteOffset" : 0, "componentType" : 5126, "count" : 12, "type" : "VEC3", "max" : [-1.137205958366394, 2.314474105834961, 0.9916415214538574], "min" : [-1.6876118183135986, -2.314474105834961, 0.6566640138626099], "name" : "POSITION"}, {"bufferView" : 6, "byteOffset" : 12, "componentType" : 5126, "count" : 12, "type" : "VEC3", "max" : [-0.10233929008245468, 0.5102943778038025, 0.9928812980651855], "min" : [-0.8559876680374146, -0.5102943778038025, 0.0830293670296669], "name" : "NORMAL"}, {"bufferView" : 6, "byteOffset" : 24, "componentType" : 5126, "count" : 12, "type" : "VEC2", "max" : [0.5816101431846619, 1.0912973880767822], "min" : [0.3995964527130127, 1.0517120361328125], "name" : "TEXCOORD_0"}, {"bufferView" : 0, "byteOffset" : 127008, "componentType" : 5123, "count" : 396, "type" : "SCALAR", "max" : [47], "min" : [0]}, {"bufferView" : 7, "byteOffset" : 0, "componentType" : 5126, "count" : 48, "type" : "VEC3", "max" : [3.894362688064575, 3.5705270767211914, 0.6745021939277649], "min" : [3.460437774658203, -3.5705270767211914, 0.5938841104507446], "name" : "POSITION"}, {"bufferView" : 7, "byteOffset" : 12, "componentType" : 5126, "count" : 48, "type" : "VEC3", "max" : [0.27234530448913574, 1.0000044107437134, 0], "min" : [-1.0000044107437134, -1.0000044107437134, 0], "name" : "NORMAL"}, {"bufferView" : 7, "byteOffset" : 24, "componentType" : 5126, "count" : 48, "type" : "VEC2", "max" : [0.5625, 1.5], "min" : [0.21875, 1.4357784986495972], "name" : "TEXCOORD_0"}, {"bufferView" : 0, "byteOffset" : 127800, "componentType" : 5123, "count" : 3384, "type" : "SCALAR", "max" : [313], "min" : [0]}, {"bufferView" : 8, "byteOffset" : 0, "componentType" : 5126, "count" : 314, "type" : "VEC3", "max" : [0.5285975933074951, 0.13574104011058807, 1.149341344833374], "min" : [0.2571154832839966, -0.13574104011058807, 0.877859354019165], "name" : "POSITION"}, {"bufferView" : 8, "byteOffset" : 12, "componentType" : 5126, "count" : 314, "type" : "VEC3", "max" : [0.7408241033554077, 0.7408291697502136, 0.9885335564613342], "min" : [-0.7408232688903809, -0.7408291101455688, -0.6717067956924438], "name" : "NORMAL"}, {"bufferView" : 8, "byteOffset" : 24, "componentType" : 5126, "count" : 314, "type" : "VEC2", "max" : [1, 1.9900000095367432], "min" : [0, 1], "name" : "TEXCOORD_0"}, {"bufferView" : 0, "byteOffset" : 134568, "componentType" : 5123, "count" : 13032, "type" : "SCALAR", "max" : [1175], "min" : [0]}, {"bufferView" : 9, "byteOffset" : 0, "componentType" : 5126, "count" : 1176, "type" : "VEC3", "max" : [0.8933466076850891, 0.12540839612483978, 1.1437702178955078], "min" : [0.6240176558494568, -0.12540839612483978, 0.877859354019165], "name" : "POSITION"}, {"bufferView" : 9, "byteOffset" : 12, "componentType" : 5126, "count" : 1176, "type" : "VEC3", "max" : [0.9187905788421631, 0.9992726445198059, 0.9892362952232361], "min" : [-0.9992727041244507, -0.9992726445198059, -0.6717078685760498], "name" : "NORMAL"}, {"bufferView" : 9, "byteOffset" : 24, "componentType" : 5126, "count" : 1176, "type" : "VEC2", "max" : [1, 1.9900000095367432], "min" : [0, 1], "name" : "TEXCOORD_0"}], "asset" : {"generator" : "Aspose.3D 24.6.0", "version" : "2.0"}, "buffers" : [{"uri" : "data:application/octet-stream;base64,", "byteLength" : 405440}], "bufferViews" : [{"buffer" : 0, "byteOffset" : 0, "byteLength" : 160632, "target" : 34963}, {"buffer" : 0, "byteOffset" : 160636, "byteLength" : 151392, "byteStride" : 32, "target" : 34962}, {"buffer" : 0, "byteOffset" : 312032, "byteLength" : 20736, "byteStride" : 32, "target" : 34962}, {"buffer" : 0, "byteOffset" : 332772, "byteLength" : 20736, "byteStride" : 32, "target" : 34962}, {"buffer" : 0, "byteOffset" : 353512, "byteLength" : 1792, "byteStride" : 32, "target" : 34962}, {"buffer" : 0, "byteOffset" : 355308, "byteLength" : 512, "byteStride" : 32, "target" : 34962}, {"buffer" : 0, "byteOffset" : 355824, "byteLength" : 384, "byteStride" : 32, "target" : 34962}, {"buffer" : 0, "byteOffset" : 356212, "byteLength" : 1536, "byteStride" : 32, "target" : 34962}, {"buffer" : 0, "byteOffset" : 357752, "byteLength" : 10048, "byteStride" : 32, "target" : 34962}, {"buffer" : 0, "byteOffset" : 367804, "byteLength" : 37632, "byteStride" : 32, "target" : 34962}], "materials" : [{"name" : "Material.001", "pbrMetallicRoughness" : {"baseColorFactor" : [0, 0, 0, 1], "metallicFactor" : 0, "roughnessFactor" : 0.4}, "emissiveFactor" : [0.15294117647058825, 0.30196078431372547, 0.5764705882352941], "alphaMode" : "OPAQUE", "doubleSided" : true}, {"name" : "Material.005", "pbrMetallicRoughness" : {"baseColorFactor" : [0.054901960784313725, 0.027450980392156862, 0.01568627450980392, 1], "metallicFactor" : 1, "roughnessFactor" : 0.4}, "emissiveFactor" : [0, 0, 0], "alphaMode" : "OPAQUE", "doubleSided" : true}, {"name" : "Material.006", "pbrMetallicRoughness" : {"baseColorFactor" : [0.054901960784313725, 0.023529411764705882, 0.01568627450980392, 1], "metallicFactor" : 1, "roughnessFactor" : 0.4}, "emissiveFactor" : [0, 0, 0], "alphaMode" : "OPAQUE", "doubleSided" : true}, {"name" : "Material.009", "pbrMetallicRoughness" : {"baseColorFactor" : [0.8, 0.8, 0.8, 1], "metallicFactor" : 1, "roughnessFactor" : 0.4}, "emissiveFactor" : [0.08627450980392157, 0.8156862745098039, 0.054901960784313725], "alphaMode" : "OPAQUE", "doubleSided" : true}, {"name" : "Material.007", "pbrMetallicRoughness" : {"baseColorFactor" : [0.43529411764705883, 0.7686274509803922, 0.8, 1], "metallicFactor" : 1, "roughnessFactor" : 0.4}, "emissiveFactor" : [0.2823529411764706, 0.8156862745098039, 0.9294117647058824], "alphaMode" : "OPAQUE", "doubleSided" : true}, {"name" : "Material.003", "pbrMetallicRoughness" : {"baseColorFactor" : [0.8, 0.6627450980392157, 0.12941176470588237, 1], "metallicFactor" : 1, "roughnessFactor" : 0.4}, "emissiveFactor" : [0, 0, 0], "alphaMode" : "OPAQUE", "doubleSided" : true}, {"name" : "Material.010", "pbrMetallicRoughness" : {"baseColorFactor" : [0.8, 0.8, 0.8, 1], "metallicFactor" : 1, "roughnessFactor" : 0.4}, "emissiveFactor" : [0.792156862745098, 0.027450980392156862, 0.027450980392156862], "alphaMode" : "OPAQUE", "doubleSided" : true}, {"name" : "Material.013", "pbrMetallicRoughness" : {"baseColorFactor" : [0.00784313725490196, 0.00784313725490196, 0.00784313725490196, 1], "metallicFactor" : 1, "roughnessFactor" : 0.4}, "emissiveFactor" : [0.058823529411764705, 0.058823529411764705, 0.058823529411764705], "alphaMode" : "OPAQUE", "doubleSided" : true}, {"name" : "Material.012", "pbrMetallicRoughness" : {"baseColorFactor" : [0.8, 0.8, 0.8, 1], "metallicFactor" : 1, "roughnessFactor" : 0.4}, "emissiveFactor" : [0.23529411764705882, 0.8627450980392157, 0.3411764705882353], "alphaMode" : "OPAQUE", "doubleSided" : true}], "meshes" : [{"primitives" : [{"attributes" : {"POSITION" : 1, "NORMAL" : 2, "TEXCOORD_0" : 3}, "indices" : 0, "material" : 0, "mode" : 4}, {"attributes" : {"POSITION" : 5, "NORMAL" : 6, "TEXCOORD_0" : 7}, "indices" : 4, "material" : 1, "mode" : 4}, {"attributes" : {"POSITION" : 9, "NORMAL" : 10, "TEXCOORD_0" : 11}, "indices" : 8, "material" : 2, "mode" : 4}, {"attributes" : {"POSITION" : 13, "NORMAL" : 14, "TEXCOORD_0" : 15}, "indices" : 12, "material" : 3, "mode" : 4}, {"attributes" : {"POSITION" : 17, "NORMAL" : 18, "TEXCOORD_0" : 19}, "indices" : 16, "material" : 4, "mode" : 4}, {"attributes" : {"POSITION" : 21, "NORMAL" : 22, "TEXCOORD_0" : 23}, "indices" : 20, "material" : 5, "mode" : 4}, {"attributes" : {"POSITION" : 25, "NORMAL" : 26, "TEXCOORD_0" : 27}, "indices" : 24, "material" : 6, "mode" : 4}, {"attributes" : {"POSITION" : 29, "NORMAL" : 30, "TEXCOORD_0" : 31}, "indices" : 28, "material" : 7, "mode" : 4}, {"attributes" : {"POSITION" : 33, "NORMAL" : 34, "TEXCOORD_0" : 35}, "indices" : 32, "material" : 8, "mode" : 4}]}], "nodes" : [{"matrix" : [1, 0, 0, 0, 0, 3.422854177870249E-08, -0.9999999403953552, 0, 0, 0.9999999403953552, 3.422854177870249E-08, 0, 0, 0, 0, 1], "mesh" : 0, "name" : "Node2"}, {"children" : [0], "name" : "Node0"}], "scene" : 0, "scenes" : [{"nodes" : [1]}]}